<?xml version="1.0" encoding="UTF-8" standalone="no"?>
<!DOCTYPE svg PUBLIC "-//W3C//DTD SVG 1.1//EN"
 "http://www.w3.org/Graphics/SVG/1.1/DTD/svg11.dtd">
<!-- Generated by graphviz version 2.43.0 (0)
 -->
<!-- Title: data_flow_swimlanes_v4 Pages: 1 -->
<svg width="8548pt" height="4805pt"
 viewBox="3.60 3.60 875.60 490.60" xmlns="http://www.w3.org/2000/svg" xmlns:xlink="http://www.w3.org/1999/xlink">
<g id="graph0" class="graph" transform="scale(9.72 9.72) rotate(0) translate(7.6 486.6)">
<title>data_flow_swimlanes_v4</title>
<polygon fill="white" stroke="transparent" points="-4,4 -4,-483 868,-483 868,4 -4,4"/>
<polygon fill="#f7f7f7" stroke="transparent" points="251,-171.5 251,-192.5 613,-192.5 613,-171.5 251,-171.5"/>
<polygon fill="none" stroke="black" points="251,-171.5 251,-192.5 613,-192.5 613,-171.5 251,-171.5"/>
<text text-anchor="start" x="417" y="-179.3" font-family="Times,serif" font-weight="bold" font-size="14.00">Key</text>
<polygon fill="#90caf9" stroke="transparent" points="251,-150.5 251,-171.5 286,-171.5 286,-150.5 251,-150.5"/>
<polygon fill="none" stroke="black" points="251,-150.5 251,-171.5 286,-171.5 286,-150.5 251,-150.5"/>
<polygon fill="none" stroke="black" points="286,-150.5 286,-171.5 613,-171.5 613,-150.5 286,-150.5"/>
<text text-anchor="start" x="348.5" y="-157.3" font-family="Times,serif" font-size="14.00">Ingest (PDS Ldr, Model Ldr)</text>
<polygon fill="#a5d6a7" stroke="transparent" points="251,-129.5 251,-150.5 286,-150.5 286,-129.5 251,-129.5"/>
<polygon fill="none" stroke="black" points="251,-129.5 251,-150.5 286,-150.5 286,-129.5 251,-129.5"/>
<polygon fill="none" stroke="black" points="286,-129.5 286,-150.5 613,-150.5 613,-129.5 286,-129.5"/>
<text text-anchor="start" x="348" y="-136.3" font-family="Times,serif" font-size="14.00">Pre/Post (Preproc, Postproc)</text>
<polygon fill="#ffcc80" stroke="transparent" points="251,-108.5 251,-129.5 286,-129.5 286,-108.5 251,-108.5"/>
<polygon fill="none" stroke="black" points="251,-108.5 251,-129.5 286,-129.5 286,-108.5 251,-108.5"/>
<polygon fill="none" stroke="black" points="286,-108.5 286,-129.5 613,-129.5 613,-108.5 286,-108.5"/>
<text text-anchor="start" x="404.5" y="-115.3" font-family="Times,serif" font-size="14.00">Model (BIM)</text>
<polygon fill="#b39ddb" stroke="transparent" points="251,-87.5 251,-108.5 286,-108.5 286,-87.5 251,-87.5"/>
<polygon fill="none" stroke="black" points="251,-87.5 251,-108.5 286,-108.5 286,-87.5 251,-87.5"/>
<polygon fill="none" stroke="black" points="286,-87.5 286,-108.5 613,-108.5 613,-87.5 286,-87.5"/>
<text text-anchor="start" x="365.5" y="-94.3" font-family="Times,serif" font-size="14.00">Detection (Feat Detect)</text>
<polygon fill="#ffe082" stroke="transparent" points="251,-66.5 251,-87.5 286,-87.5 286,-66.5 251,-66.5"/>
<polygon fill="none" stroke="black" points="251,-66.5 251,-87.5 286,-87.5 286,-66.5 251,-66.5"/>
<polygon fill="none" stroke="black" points="286,-66.5 286,-87.5 613,-87.5 613,-66.5 286,-66.5"/>
<text text-anchor="start" x="406" y="-73.3" font-family="Times,serif" font-size="14.00">QA / Review</text>
<polygon fill="#80cbc4" stroke="transparent" points="251,-45.5 251,-66.5 286,-66.5 286,-45.5 251,-45.5"/>
<polygon fill="none" stroke="black" points="251,-45.5 251,-66.5 286,-66.5 286,-45.5 251,-45.5"/>
<polygon fill="none" stroke="black" points="286,-45.5 286,-66.5 613,-66.5 613,-45.5 286,-45.5"/>
<text text-anchor="start" x="392" y="-52.3" font-family="Times,serif" font-size="14.00">Output (Export)</text>
<polygon fill="none" stroke="black" points="251,-24.5 251,-45.5 286,-45.5 286,-24.5 251,-24.5"/>
<text text-anchor="start" x="254" y="-31.3" font-family="Times,serif" font-size="14.00" fill="#263238">——</text>
<polygon fill="none" stroke="black" points="286,-24.5 286,-45.5 613,-45.5 613,-24.5 286,-24.5"/>
<text text-anchor="start" x="411.5" y="-31.3" font-family="Times,serif" font-size="14.00">Main Flow</text>
<polygon fill="none" stroke="black" points="251,-3.5 251,-24.5 286,-24.5 286,-3.5 251,-3.5"/>
<text text-anchor="start" x="254" y="-10.3" font-family="Times,serif" font-size="14.00" fill="#d81b60">——</text>
<polygon fill="none" stroke="black" points="286,-3.5 286,-24.5 613,-24.5 613,-3.5 286,-3.5"/>
<text text-anchor="start" x="289" y="-10.3" font-family="Times,serif" font-size="14.00">Side Branch (PDS → Postproc → Feat Detect)</text>
<g id="clust1" class="cluster">
<title>cluster_ingest</title>
<polygon fill="#b0c8e8" stroke="#b0c8e8" stroke-width="1.2" points="8,-309 8,-471 84,-471 84,-309 8,-309"/>
<text text-anchor="middle" x="46" y="-456.6" font-family="Helvetica,sans-Serif" font-weight="bold" font-size="13.00">Ingest</text>
</g>
<g id="clust2" class="cluster">
<title>cluster_prepost</title>
<polygon fill="#b9ddb7" stroke="#b9ddb7" stroke-width="1.2" points="160,-205 160,-367 239,-367 239,-205 160,-205"/>
<text text-anchor="middle" x="199.5" y="-352.6" font-family="Helvetica,sans-Serif" font-weight="bold" font-size="13.00">Pre/Post</text>
</g>
<g id="clust3" class="cluster">
<title>cluster_model</title>
<polygon fill="#ffd2a3" stroke="#ffd2a3" stroke-width="1.2" points="315,-326 315,-384 376,-384 376,-326 315,-326"/>
<text text-anchor="middle" x="345.5" y="-369.6" font-family="Helvetica,sans-Serif" font-weight="bold" font-size="13.00">Model</text>
</g>
<g id="clust4" class="cluster">
<title>cluster_detect</title>
<polygon fill="#d9cbff" stroke="#d9cbff" stroke-width="1.2" points="452,-265 452,-323 539,-323 539,-265 452,-265"/>
<text text-anchor="middle" x="495.5" y="-308.6" font-family="Helvetica,sans-Serif" font-weight="bold" font-size="13.00">Detection</text>
</g>
<g id="clust5" class="cluster">
<title>cluster_qa</title>
<polygon fill="#ffe9a8" stroke="#ffe9a8" stroke-width="1.2" points="615,-265 615,-323 719,-323 719,-265 615,-265"/>
<text text-anchor="middle" x="667" y="-308.6" font-family="Helvetica,sans-Serif" font-weight="bold" font-size="13.00">QA / Review</text>
</g>
<g id="clust6" class="cluster">
<title>cluster_output</title>
<polygon fill="#a6e3d8" stroke="#a6e3d8" stroke-width="1.2" points="795,-265 795,-323 862,-323 862,-265 795,-265"/>
<text text-anchor="middle" x="828.5" y="-308.6" font-family="Helvetica,sans-Serif" font-weight="bold" font-size="13.00">Output</text>
</g>
<!-- pds -->
<g id="node1" class="node">
<title>pds</title>
<path fill="#90caf9" stroke="#333333" stroke-width="1.4" d="M66,-345C66,-345 26,-345 26,-345 20,-345 14,-339 14,-333 14,-333 14,-321 14,-321 14,-315 20,-309 26,-309 26,-309 66,-309 66,-309 72,-309 78,-315 78,-321 78,-321 78,-333 78,-333 78,-339 72,-345 66,-345"/>
<text text-anchor="middle" x="46" y="-323.9" font-family="Helvetica,sans-Serif" font-size="12.00">PDS Ldr</text>
</g>
<!-- pre -->
<g id="node3" class="node">
<title>pre</title>
<path fill="#a5d6a7" stroke="#333333" stroke-width="1.4" d="M218,-345C218,-345 180,-345 180,-345 174,-345 168,-339 168,-333 168,-333 168,-321 168,-321 168,-315 174,-309 180,-309 180,-309 218,-309 218,-309 224,-309 230,-315 230,-321 230,-321 230,-333 230,-333 230,-339 224,-345 218,-345"/>
<text text-anchor="middle" x="199" y="-323.9" font-family="Helvetica,sans-Serif" font-size="12.00">Preproc</text>
</g>
<!-- pds&#45;&gt;pre -->
<g id="edge1" class="edge">
<title>pds&#45;&gt;pre</title>
<path fill="none" stroke="#263238" stroke-width="1.4" d="M78.07,-327C78.07,-327 158.75,-327 158.75,-327"/>
<polygon fill="#263238" stroke="#263238" stroke-width="1.4" points="158.75,-330.15 167.75,-327 158.75,-323.85 158.75,-330.15"/>
</g>
<!-- pp -->
<g id="node4" class="node">
<title>pp</title>
<path fill="#a5d6a7" stroke="#333333" stroke-width="1.4" d="M221,-241C221,-241 177,-241 177,-241 171,-241 165,-235 165,-229 165,-229 165,-217 165,-217 165,-211 171,-205 177,-205 177,-205 221,-205 221,-205 227,-205 233,-211 233,-217 233,-217 233,-229 233,-229 233,-235 227,-241 221,-241"/>
<text text-anchor="middle" x="199" y="-219.9" font-family="Helvetica,sans-Serif" font-size="12.00">Postproc</text>
</g>
<!-- pds&#45;&gt;pp -->
<g id="edge7" class="edge">
<title>pds&#45;&gt;pp</title>
<path fill="none" stroke="#d81b60" stroke-width="1.4" d="M46,-308.88C46,-279.09 46,-223 46,-223 46,-223 155.66,-223 155.66,-223"/>
<polygon fill="#d81b60" stroke="#d81b60" stroke-width="1.4" points="155.66,-226.15 164.66,-223 155.66,-219.85 155.66,-226.15"/>
</g>
<!-- mdl -->
<g id="node2" class="node">
<title>mdl</title>
<path fill="#90caf9" stroke="#333333" stroke-width="1.4" d="M72,-449C72,-449 20,-449 20,-449 14,-449 8,-443 8,-437 8,-437 8,-425 8,-425 8,-419 14,-413 20,-413 20,-413 72,-413 72,-413 78,-413 84,-419 84,-425 84,-425 84,-437 84,-437 84,-443 78,-449 72,-449"/>
<text text-anchor="middle" x="46" y="-434.4" font-family="Helvetica,sans-Serif" font-size="12.00">Model Ldr</text>
<text text-anchor="middle" x="46" y="-421.4" font-family="Helvetica,sans-Serif" font-size="12.00">(wts/cfg)</text>
</g>
<!-- bim -->
<g id="node5" class="node">
<title>bim</title>
<path fill="#ffcc80" stroke="#333333" stroke-width="1.4" d="M360,-362C360,-362 330,-362 330,-362 324,-362 318,-356 318,-350 318,-350 318,-338 318,-338 318,-332 324,-326 330,-326 330,-326 360,-326 360,-326 366,-326 372,-332 372,-338 372,-338 372,-350 372,-350 372,-356 366,-362 360,-362"/>
<text text-anchor="middle" x="345" y="-340.9" font-family="Helvetica,sans-Serif" font-size="12.00">BIM</text>
</g>
<!-- mdl&#45;&gt;bim -->
<g id="edge3" class="edge">
<title>mdl&#45;&gt;bim</title>
<path fill="none" stroke="#263238" stroke-width="1.4" d="M84.17,-431C164.78,-431 345,-431 345,-431 345,-431 345,-371.03 345,-371.03"/>
<polygon fill="#263238" stroke="#263238" stroke-width="1.4" points="348.15,-371.03 345,-362.03 341.85,-371.03 348.15,-371.03"/>
</g>
<!-- pre&#45;&gt;bim -->
<g id="edge2" class="edge">
<title>pre&#45;&gt;bim</title>
<path fill="none" stroke="#263238" stroke-width="1.4" d="M230.32,-335.5C230.32,-335.5 308.66,-335.5 308.66,-335.5"/>
<polygon fill="#263238" stroke="#263238" stroke-width="1.4" points="308.66,-338.65 317.66,-335.5 308.66,-332.35 308.66,-338.65"/>
</g>
<!-- fd -->
<g id="node6" class="node">
<title>fd</title>
<path fill="#b39ddb" stroke="#333333" stroke-width="1.4" d="M526,-301C526,-301 464,-301 464,-301 458,-301 452,-295 452,-289 452,-289 452,-277 452,-277 452,-271 458,-265 464,-265 464,-265 526,-265 526,-265 532,-265 538,-271 538,-277 538,-277 538,-289 538,-289 538,-295 532,-301 526,-301"/>
<text text-anchor="middle" x="495" y="-279.9" font-family="Helvetica,sans-Serif" font-size="12.00">Feat Detect</text>
</g>
<!-- pp&#45;&gt;fd -->
<g id="edge8" class="edge">
<title>pp&#45;&gt;fd</title>
<path fill="none" stroke="#d81b60" stroke-width="1.4" d="M199,-241.28C199,-256.95 199,-277 199,-277 199,-277 442.96,-277 442.96,-277"/>
<polygon fill="#d81b60" stroke="#d81b60" stroke-width="1.4" points="442.96,-280.15 451.96,-277 442.96,-273.85 442.96,-280.15"/>
</g>
<!-- bim&#45;&gt;fd -->
<g id="edge4" class="edge">
<title>bim&#45;&gt;fd</title>
<path fill="none" stroke="#263238" stroke-width="1.4" d="M345,-325.99C345,-309.95 345,-289 345,-289 345,-289 442.61,-289 442.61,-289"/>
<polygon fill="#263238" stroke="#263238" stroke-width="1.4" points="442.61,-292.15 451.61,-289 442.61,-285.85 442.61,-292.15"/>
</g>
<!-- rev -->
<g id="node7" class="node">
<title>rev</title>
<path fill="#ffe082" stroke="#333333" stroke-width="1.4" d="M684,-301C684,-301 649,-301 649,-301 643,-301 637,-295 637,-289 637,-289 637,-277 637,-277 637,-271 643,-265 649,-265 649,-265 684,-265 684,-265 690,-265 696,-271 696,-277 696,-277 696,-289 696,-289 696,-295 690,-301 684,-301"/>
<text text-anchor="middle" x="666.5" y="-279.9" font-family="Helvetica,sans-Serif" font-size="12.00">Review</text>
</g>
<!-- fd&#45;&gt;rev -->
<g id="edge5" class="edge">
<title>fd&#45;&gt;rev</title>
<path fill="none" stroke="#263238" stroke-width="1.4" d="M538.28,-283C538.28,-283 628,-283 628,-283"/>
<polygon fill="#263238" stroke="#263238" stroke-width="1.4" points="628,-286.15 637,-283 628,-279.85 628,-286.15"/>
</g>
<!-- exp -->
<g id="node8" class="node">
<title>exp</title>
<path fill="#80cbc4" stroke="#333333" stroke-width="1.4" d="M844,-301C844,-301 812,-301 812,-301 806,-301 800,-295 800,-289 800,-289 800,-277 800,-277 800,-271 806,-265 812,-265 812,-265 844,-265 844,-265 850,-265 856,-271 856,-277 856,-277 856,-289 856,-289 856,-295 850,-301 844,-301"/>
<text text-anchor="middle" x="828" y="-279.9" font-family="Helvetica,sans-Serif" font-size="12.00">Export</text>
</g>
<!-- rev&#45;&gt;exp -->
<g id="edge6" class="edge">
<title>rev&#45;&gt;exp</title>
<path fill="none" stroke="#263238" stroke-width="1.4" d="M696.12,-283C696.12,-283 790.92,-283 790.92,-283"/>
<polygon fill="#263238" stroke="#263238" stroke-width="1.4" points="790.92,-286.15 799.92,-283 790.92,-279.85 790.92,-286.15"/>
</g>
</g>
</svg>
