<?xml version="1.0" encoding="UTF-8" standalone="no"?>
<!DOCTYPE svg PUBLIC "-//W3C//DTD SVG 1.1//EN"
 "http://www.w3.org/Graphics/SVG/1.1/DTD/svg11.dtd">
<!-- Generated by graphviz version 14.0.2 (20251019.1705)
 -->
<!-- Title: data_loader Pages: 1 -->
<svg width="575pt" height="98pt"
 viewBox="0.00 0.00 575.00 98.00" xmlns="http://www.w3.org/2000/svg" xmlns:xlink="http://www.w3.org/1999/xlink">
<g id="graph0" class="graph" transform="scale(1 1) rotate(0) translate(4 94)">
<title>data_loader</title>
<polygon fill="white" stroke="none" points="-4,4 -4,-94 570.72,-94 570.72,4 -4,4"/>
<!-- BestModelDownloader: best_model.zip -->
<g id="node1" class="node">
<title>BestModelDownloader: best_model.zip</title>
<path fill="none" stroke="black" d="M280.38,-90C280.38,-90 70.88,-90 70.88,-90 64.88,-90 58.87,-84 58.87,-78 58.87,-78 58.87,-66 58.87,-66 58.87,-60 64.87,-54 70.87,-54 70.87,-54 280.38,-54 280.38,-54 286.38,-54 292.38,-60 292.38,-66 292.38,-66 292.38,-78 292.38,-78 292.38,-84 286.38,-90 280.38,-90"/>
<text xml:space="preserve" text-anchor="middle" x="175.62" y="-66.95" font-family="Times New Roman,serif" font-size="14.00">BestModelDownloader: best_model.zip</text>
</g>
<!-- merge_environments -->
<g id="node3" class="node">
<title>merge_environments</title>
<ellipse fill="none" stroke="black" cx="476.99" cy="-45" rx="89.74" ry="18"/>
<text xml:space="preserve" text-anchor="middle" x="476.99" y="-39.95" font-family="Times New Roman,serif" font-size="14.00">merge_environments</text>
</g>
<!-- BestModelDownloader: best_model.zip&#45;&gt;merge_environments -->
<g id="edge1" class="edge">
<title>BestModelDownloader: best_model.zip&#45;&gt;merge_environments</title>
<path fill="none" stroke="black" d="M292.79,-61.52C322.83,-58.81 354.76,-55.93 383.41,-53.35"/>
<polygon fill="black" stroke="black" points="383.48,-56.86 393.12,-52.47 382.85,-49.89 383.48,-56.86"/>
</g>
<!-- PDSDownloader: ocams_data_calibrated_detailed_survey.zip -->
<g id="node2" class="node">
<title>PDSDownloader: ocams_data_calibrated_detailed_survey.zip</title>
<path fill="none" stroke="black" d="M339.25,-36C339.25,-36 12,-36 12,-36 6,-36 0,-30 0,-24 0,-24 0,-12 0,-12 0,-6 6,0 12,0 12,0 339.25,0 339.25,0 345.25,0 351.25,-6 351.25,-12 351.25,-12 351.25,-24 351.25,-24 351.25,-30 345.25,-36 339.25,-36"/>
<text xml:space="preserve" text-anchor="middle" x="175.62" y="-12.95" font-family="Times New Roman,serif" font-size="14.00">PDSDownloader: ocams_data_calibrated_detailed_survey.zip</text>
</g>
<!-- PDSDownloader: ocams_data_calibrated_detailed_survey.zip&#45;&gt;merge_environments -->
<g id="edge2" class="edge">
<title>PDSDownloader: ocams_data_calibrated_detailed_survey.zip&#45;&gt;merge_environments</title>
<path fill="none" stroke="black" d="M351.63,-33.78C362.42,-34.76 373.02,-35.71 383.21,-36.63"/>
<polygon fill="black" stroke="black" points="382.74,-40.1 393.02,-37.52 383.37,-33.13 382.74,-40.1"/>
</g>
</g>
</svg>
