<?xml version="1.0" encoding="UTF-8" standalone="no"?>
<!DOCTYPE svg PUBLIC "-//W3C//DTD SVG 1.1//EN"
 "http://www.w3.org/Graphics/SVG/1.1/DTD/svg11.dtd">
<!-- Generated by graphviz version 14.0.2 (20251019.1705)
 -->
<!-- Title: data_loader Pages: 1 -->
<svg width="575pt" height="368pt"
 viewBox="0.00 0.00 575.00 368.00" xmlns="http://www.w3.org/2000/svg" xmlns:xlink="http://www.w3.org/1999/xlink">
<g id="graph0" class="graph" transform="scale(1 1) rotate(0) translate(4 364)">
<title>data_loader</title>
<polygon fill="white" stroke="none" points="-4,4 -4,-364 570.72,-364 570.72,4 -4,4"/>
<!-- BestModelDownloader: best_model.zip -->
<g id="node1" class="node">
<title>BestModelDownloader: best_model.zip</title>
<path fill="none" stroke="black" d="M280.38,-360C280.38,-360 70.88,-360 70.88,-360 64.88,-360 58.87,-354 58.87,-348 58.87,-348 58.87,-336 58.87,-336 58.87,-330 64.87,-324 70.87,-324 70.87,-324 280.38,-324 280.38,-324 286.38,-324 292.38,-330 292.38,-336 292.38,-336 292.38,-348 292.38,-348 292.38,-354 286.38,-360 280.38,-360"/>
<text xml:space="preserve" text-anchor="middle" x="175.62" y="-336.95" font-family="Times New Roman,serif" font-size="14.00">BestModelDownloader: best_model.zip</text>
</g>
<!-- merge_environments -->
<g id="node8" class="node">
<title>merge_environments</title>
<ellipse fill="none" stroke="black" cx="476.99" cy="-180" rx="89.74" ry="18"/>
<text xml:space="preserve" text-anchor="middle" x="476.99" y="-174.95" font-family="Times New Roman,serif" font-size="14.00">merge_environments</text>
</g>
<!-- BestModelDownloader: best_model.zip&#45;&gt;merge_environments -->
<g id="edge1" class="edge">
<title>BestModelDownloader: best_model.zip&#45;&gt;merge_environments</title>
<path fill="none" stroke="black" d="M292.42,-335.28C312.81,-331.01 333.24,-324.59 351.25,-315 398.78,-289.7 437.85,-239.1 458.96,-207.54"/>
<polygon fill="black" stroke="black" points="461.81,-209.58 464.34,-199.29 455.94,-205.76 461.81,-209.58"/>
</g>
<!-- PDSDownloader: ocams_data_calibrated_detailed_survey.zip -->
<g id="node2" class="node">
<title>PDSDownloader: ocams_data_calibrated_detailed_survey.zip</title>
<path fill="none" stroke="black" d="M339.25,-306C339.25,-306 12,-306 12,-306 6,-306 0,-300 0,-294 0,-294 0,-282 0,-282 0,-276 6,-270 12,-270 12,-270 339.25,-270 339.25,-270 345.25,-270 351.25,-276 351.25,-282 351.25,-282 351.25,-294 351.25,-294 351.25,-300 345.25,-306 339.25,-306"/>
<text xml:space="preserve" text-anchor="middle" x="175.62" y="-282.95" font-family="Times New Roman,serif" font-size="14.00">PDSDownloader: ocams_data_calibrated_detailed_survey.zip</text>
</g>
<!-- PDSDownloader: ocams_data_calibrated_detailed_survey.zip&#45;&gt;merge_environments -->
<g id="edge2" class="edge">
<title>PDSDownloader: ocams_data_calibrated_detailed_survey.zip&#45;&gt;merge_environments</title>
<path fill="none" stroke="black" d="M324.97,-269.57C333.97,-267.07 342.8,-264.23 351.25,-261 386.39,-247.59 421.92,-223.21 446.03,-204.69"/>
<polygon fill="black" stroke="black" points="448.09,-207.52 453.8,-198.6 443.77,-202.01 448.09,-207.52"/>
</g>
<!-- PDSDownloader: ocams_data_reduced_detailed_survey.zip -->
<g id="node3" class="node">
<title>PDSDownloader: ocams_data_reduced_detailed_survey.zip</title>
<path fill="none" stroke="black" d="M334,-252C334,-252 17.25,-252 17.25,-252 11.25,-252 5.25,-246 5.25,-240 5.25,-240 5.25,-228 5.25,-228 5.25,-222 11.25,-216 17.25,-216 17.25,-216 334,-216 334,-216 340,-216 346,-222 346,-228 346,-228 346,-240 346,-240 346,-246 340,-252 334,-252"/>
<text xml:space="preserve" text-anchor="middle" x="175.62" y="-228.95" font-family="Times New Roman,serif" font-size="14.00">PDSDownloader: ocams_data_reduced_detailed_survey.zip</text>
</g>
<!-- PDSDownloader: ocams_data_reduced_detailed_survey.zip&#45;&gt;merge_environments -->
<g id="edge3" class="edge">
<title>PDSDownloader: ocams_data_reduced_detailed_survey.zip&#45;&gt;merge_environments</title>
<path fill="none" stroke="black" d="M302.21,-215.51C318.73,-212.8 335.41,-209.94 351.25,-207 368.85,-203.74 387.76,-199.85 405.4,-196.05"/>
<polygon fill="black" stroke="black" points="405.98,-199.5 415.01,-193.96 404.5,-192.66 405.98,-199.5"/>
</g>
<!-- PDSDownloader: ocams_data_calibrated_orbit_b.zip -->
<g id="node4" class="node">
<title>PDSDownloader: ocams_data_calibrated_orbit_b.zip</title>
<path fill="none" stroke="black" d="M316.38,-198C316.38,-198 34.88,-198 34.88,-198 28.88,-198 22.88,-192 22.88,-186 22.88,-186 22.88,-174 22.88,-174 22.88,-168 28.88,-162 34.88,-162 34.88,-162 316.38,-162 316.38,-162 322.38,-162 328.38,-168 328.38,-174 328.38,-174 328.38,-186 328.38,-186 328.38,-192 322.38,-198 316.38,-198"/>
<text xml:space="preserve" text-anchor="middle" x="175.62" y="-174.95" font-family="Times New Roman,serif" font-size="14.00">PDSDownloader: ocams_data_calibrated_orbit_b.zip</text>
</g>
<!-- PDSDownloader: ocams_data_calibrated_orbit_b.zip&#45;&gt;merge_environments -->
<g id="edge4" class="edge">
<title>PDSDownloader: ocams_data_calibrated_orbit_b.zip&#45;&gt;merge_environments</title>
<path fill="none" stroke="black" d="M328.5,-180C344.41,-180 360.3,-180 375.43,-180"/>
<polygon fill="black" stroke="black" points="375.32,-183.5 385.32,-180 375.32,-176.5 375.32,-183.5"/>
</g>
<!-- PDSDownloader: ocams_data_calibrated_recon.zip -->
<g id="node5" class="node">
<title>PDSDownloader: ocams_data_calibrated_recon.zip</title>
<path fill="none" stroke="black" d="M311.88,-144C311.88,-144 39.38,-144 39.38,-144 33.38,-144 27.38,-138 27.38,-132 27.38,-132 27.38,-120 27.38,-120 27.38,-114 33.38,-108 39.38,-108 39.38,-108 311.88,-108 311.88,-108 317.88,-108 323.88,-114 323.88,-120 323.88,-120 323.88,-132 323.88,-132 323.88,-138 317.88,-144 311.88,-144"/>
<text xml:space="preserve" text-anchor="middle" x="175.62" y="-120.95" font-family="Times New Roman,serif" font-size="14.00">PDSDownloader: ocams_data_calibrated_recon.zip</text>
</g>
<!-- PDSDownloader: ocams_data_calibrated_recon.zip&#45;&gt;merge_environments -->
<g id="edge5" class="edge">
<title>PDSDownloader: ocams_data_calibrated_recon.zip&#45;&gt;merge_environments</title>
<path fill="none" stroke="black" d="M302.21,-144.49C318.73,-147.2 335.41,-150.06 351.25,-153 368.85,-156.26 387.76,-160.15 405.4,-163.95"/>
<polygon fill="black" stroke="black" points="404.5,-167.34 415.01,-166.04 405.98,-160.5 404.5,-167.34"/>
</g>
<!-- PDSDownloader: ocams_metadata.zip -->
<g id="node6" class="node">
<title>PDSDownloader: ocams_metadata.zip</title>
<path fill="none" stroke="black" d="M277,-90C277,-90 74.25,-90 74.25,-90 68.25,-90 62.25,-84 62.25,-78 62.25,-78 62.25,-66 62.25,-66 62.25,-60 68.25,-54 74.25,-54 74.25,-54 277,-54 277,-54 283,-54 289,-60 289,-66 289,-66 289,-78 289,-78 289,-84 283,-90 277,-90"/>
<text xml:space="preserve" text-anchor="middle" x="175.62" y="-66.95" font-family="Times New Roman,serif" font-size="14.00">PDSDownloader: ocams_metadata.zip</text>
</g>
<!-- PDSDownloader: ocams_metadata.zip&#45;&gt;merge_environments -->
<g id="edge6" class="edge">
<title>PDSDownloader: ocams_metadata.zip&#45;&gt;merge_environments</title>
<path fill="none" stroke="black" d="M289.3,-82.26C310.31,-86.17 331.76,-91.56 351.25,-99 386.39,-112.41 421.92,-136.79 446.03,-155.31"/>
<polygon fill="black" stroke="black" points="443.77,-157.99 453.8,-161.4 448.09,-152.48 443.77,-157.99"/>
</g>
<!-- PDSDownloader: ocams_calibration.zip -->
<g id="node7" class="node">
<title>PDSDownloader: ocams_calibration.zip</title>
<path fill="none" stroke="black" d="M281.12,-36C281.12,-36 70.12,-36 70.12,-36 64.12,-36 58.12,-30 58.12,-24 58.12,-24 58.12,-12 58.12,-12 58.12,-6 64.12,0 70.12,0 70.12,0 281.12,0 281.12,0 287.12,0 293.12,-6 293.12,-12 293.12,-12 293.12,-24 293.12,-24 293.12,-30 287.12,-36 281.12,-36"/>
<text xml:space="preserve" text-anchor="middle" x="175.62" y="-12.95" font-family="Times New Roman,serif" font-size="14.00">PDSDownloader: ocams_calibration.zip</text>
</g>
<!-- PDSDownloader: ocams_calibration.zip&#45;&gt;merge_environments -->
<g id="edge7" class="edge">
<title>PDSDownloader: ocams_calibration.zip&#45;&gt;merge_environments</title>
<path fill="none" stroke="black" d="M293.34,-24.92C313.42,-29.18 333.51,-35.56 351.25,-45 398.78,-70.3 437.85,-120.9 458.96,-152.46"/>
<polygon fill="black" stroke="black" points="455.94,-154.24 464.34,-160.71 461.81,-150.42 455.94,-154.24"/>
</g>
</g>
</svg>
